<svg width="123" height="52" viewBox="0 0 123 52" fill="none" xmlns="http://www.w3.org/2000/svg">
<path d="M57.3105 25.5213C57.3105 22.4863 58.4172 19.8795 60.6304 17.701C62.8345 15.5225 65.483 14.4332 68.576 14.4332C71.6319 14.4332 74.2527 15.5318 76.4382 17.7289C78.6329 19.926 79.7303 22.5654 79.7303 25.647C79.7303 28.7472 78.6283 31.3772 76.4243 33.5371C74.211 35.7063 71.5393 36.7909 68.4093 36.7909C65.6404 36.7909 63.1539 35.8273 60.9499 33.9002C58.5237 31.7682 57.3105 28.9753 57.3105 25.5213ZM60.5749 25.5632C60.5749 27.9465 61.3713 29.9062 62.9641 31.4424C64.5476 32.9785 66.3766 33.7466 68.451 33.7466C70.7013 33.7466 72.5997 32.9646 74.1462 31.4005C75.6927 29.8178 76.4659 27.8907 76.4659 25.619C76.4659 23.3195 75.702 21.3924 74.174 19.8376C72.6552 18.2735 70.7754 17.4915 68.5343 17.4915C66.3025 17.4915 64.418 18.2735 62.8808 19.8376C61.3435 21.383 60.5749 23.2916 60.5749 25.5632Z" fill="white"/>
<path d="M83.0502 36.3999L87.5647 13.2183L94.9268 29.9761L102.553 13.2183L106.609 36.3999H103.289L101.219 23.3847L94.8712 37.3914L88.7037 23.3707L86.3979 36.3999H83.0502Z" fill="white"/>
<path d="M123 17.8965H114.402V23.0774H122.75V26.1357H114.402V33.3416H123V36.3999H111.165V14.8382H123V17.8965Z" fill="white"/>
<ellipse cx="25.8621" cy="26" rx="25.8621" ry="26" fill="#E9672B"/>
<path fill-rule="evenodd" clip-rule="evenodd" d="M40.6647 15.6001C40.3456 15.6001 40.0869 15.8588 40.0869 16.1779V24.7001L10.9917 24.7001V16.1779C10.9917 15.8589 10.7331 15.6002 10.414 15.6002H8.98331C8.66421 15.6002 8.40553 15.8589 8.40553 16.1779V24.7001H8.40527V27.3001H8.40553V35.8224C8.40553 36.1415 8.66421 36.4002 8.98331 36.4002H10.414C10.7331 36.4002 10.9917 36.1415 10.9917 35.8224V27.3001L40.0869 27.3001V35.8223C40.0869 36.1414 40.3456 36.4001 40.6647 36.4001H42.0954C42.4145 36.4001 42.6731 36.1414 42.6731 35.8223V16.1779C42.6731 15.8588 42.4145 15.6001 42.0954 15.6001H40.6647Z" fill="white"/>
<ellipse cx="25.6475" cy="20.8002" rx="1.72414" ry="1.73333" fill="white"/>
<ellipse cx="25.6475" cy="31.2001" rx="1.72414" ry="1.73333" fill="white"/>
</svg>
