<svg width="24" height="24" viewBox="0 0 24 24" fill="none" xmlns="http://www.w3.org/2000/svg">
<path d="M22.0001 6.40003C22.4971 6.40003 22.9001 5.99709 22.9001 5.50003C22.9001 5.00298 22.4971 4.60003 22.0001 4.60003L22.0001 6.40003ZM9.61914 4.60003C9.12208 4.60003 8.71914 5.00297 8.71914 5.50003C8.71914 5.99709 9.12208 6.40003 9.61914 6.40003L9.61914 4.60003ZM22.0001 4.60003L9.61914 4.60003L9.61914 6.40003L22.0001 6.40003L22.0001 4.60003Z" fill="#B6B8B8"/>
<path d="M22.0001 12.9C22.4971 12.9 22.9001 12.497 22.9001 12C22.9001 11.5029 22.4971 11.1 22.0001 11.1L22.0001 12.9ZM9.61914 11.1C9.12208 11.1 8.71914 11.5029 8.71914 12C8.71914 12.497 9.12208 12.9 9.61914 12.9L9.61914 11.1ZM22.0001 11.1L9.61914 11.1L9.61914 12.9L22.0001 12.9L22.0001 11.1Z" fill="#B6B8B8"/>
<path d="M22.0001 19.4001C22.4971 19.4001 22.9001 18.9971 22.9001 18.5001C22.9001 18.003 22.4971 17.6001 22.0001 17.6001L22.0001 19.4001ZM9.61914 17.6001C9.12208 17.6001 8.71914 18.003 8.71914 18.5001C8.71914 18.9971 9.12208 19.4001 9.61914 19.4001L9.61914 17.6001ZM22.0001 17.6001L9.61914 17.6001L9.61914 19.4001L22.0001 19.4001L22.0001 17.6001Z" fill="#B6B8B8"/>
<mask id="path-4-inside-1_881_34393" fill="white">
<ellipse cx="4.38095" cy="5.5" rx="2.38095" ry="2.5"/>
</mask>
<path d="M4.2619 5.5C4.2619 5.53971 4.24838 5.54973 4.25419 5.54363C4.25731 5.54036 4.26887 5.52945 4.29301 5.51873C4.31927 5.50707 4.35109 5.5 4.38095 5.5V10.5C7.19017 10.5 9.2619 8.14508 9.2619 5.5H4.2619ZM4.38095 5.5C4.41081 5.5 4.44264 5.50707 4.46889 5.51873C4.49303 5.52945 4.50459 5.54036 4.50771 5.54363C4.51352 5.54973 4.5 5.53971 4.5 5.5H-0.5C-0.5 8.14508 1.57174 10.5 4.38095 10.5V5.5ZM4.5 5.5C4.5 5.46029 4.51352 5.45027 4.50771 5.45637C4.50459 5.45964 4.49303 5.47055 4.46889 5.48127C4.44264 5.49293 4.41081 5.5 4.38095 5.5V0.5C1.57174 0.5 -0.5 2.85492 -0.5 5.5H4.5ZM4.38095 5.5C4.35109 5.5 4.31927 5.49293 4.29301 5.48127C4.26887 5.47055 4.25731 5.45964 4.25419 5.45637C4.24838 5.45027 4.2619 5.46029 4.2619 5.5H9.2619C9.2619 2.85492 7.19017 0.5 4.38095 0.5V5.5Z" fill="#B6B8B8" mask="url(#path-4-inside-1_881_34393)"/>
<mask id="path-6-inside-2_881_34393" fill="white">
<ellipse cx="4.38095" cy="11.9999" rx="2.38095" ry="2.5"/>
</mask>
<path d="M4.2619 11.9999C4.2619 12.0397 4.24838 12.0497 4.25419 12.0436C4.25731 12.0403 4.26887 12.0294 4.29301 12.0187C4.31927 12.007 4.35109 11.9999 4.38095 11.9999V16.9999C7.19017 16.9999 9.2619 14.645 9.2619 11.9999H4.2619ZM4.38095 11.9999C4.41081 11.9999 4.44264 12.007 4.46889 12.0187C4.49303 12.0294 4.50459 12.0403 4.50771 12.0436C4.51352 12.0497 4.5 12.0397 4.5 11.9999H-0.5C-0.5 14.645 1.57174 16.9999 4.38095 16.9999V11.9999ZM4.5 11.9999C4.5 11.9602 4.51352 11.9502 4.50771 11.9563C4.50459 11.9596 4.49303 11.9705 4.46889 11.9812C4.44264 11.9929 4.41081 11.9999 4.38095 11.9999V6.99994C1.57174 6.99994 -0.5 9.35486 -0.5 11.9999H4.5ZM4.38095 11.9999C4.35109 11.9999 4.31927 11.9929 4.29301 11.9812C4.26887 11.9705 4.25731 11.9596 4.25419 11.9563C4.24838 11.9502 4.2619 11.9602 4.2619 11.9999H9.2619C9.2619 9.35486 7.19017 6.99994 4.38095 6.99994V11.9999Z" fill="#B6B8B8" mask="url(#path-6-inside-2_881_34393)"/>
<mask id="path-8-inside-3_881_34393" fill="white">
<ellipse cx="4.38095" cy="18.5" rx="2.38095" ry="2.5"/>
</mask>
<path d="M4.2619 18.5C4.2619 18.5397 4.24838 18.5498 4.25419 18.5437C4.25731 18.5404 4.26887 18.5295 4.29301 18.5188C4.31927 18.5071 4.35109 18.5 4.38095 18.5V23.5C7.19017 23.5 9.2619 21.1451 9.2619 18.5H4.2619ZM4.38095 18.5C4.41081 18.5 4.44264 18.5071 4.46889 18.5188C4.49303 18.5295 4.50459 18.5404 4.50771 18.5437C4.51352 18.5498 4.5 18.5397 4.5 18.5H-0.5C-0.5 21.1451 1.57174 23.5 4.38095 23.5V18.5ZM4.5 18.5C4.5 18.4603 4.51352 18.4503 4.50771 18.4564C4.50459 18.4597 4.49303 18.4706 4.46889 18.4813C4.44264 18.493 4.41081 18.5 4.38095 18.5V13.5C1.57174 13.5 -0.5 15.855 -0.5 18.5H4.5ZM4.38095 18.5C4.35109 18.5 4.31927 18.493 4.29301 18.4813C4.26887 18.4706 4.25731 18.4597 4.25419 18.4564C4.24838 18.4503 4.2619 18.4603 4.2619 18.5H9.2619C9.2619 15.855 7.19017 13.5 4.38095 13.5V18.5Z" fill="#B6B8B8" mask="url(#path-8-inside-3_881_34393)"/>
</svg>
