<svg width="274" height="69" viewBox="0 0 274 69" fill="none" xmlns="http://www.w3.org/2000/svg">
<path d="M40.3125 49.2969C39.9583 48.6927 39.7812 48.0078 39.7812 47.2422C39.7812 46.4766 39.9583 45.7969 40.3125 45.2031C40.6719 44.6042 41.1458 44.1484 41.7344 43.8359C42.3229 43.5234 42.974 43.3672 43.6875 43.3672C44.401 43.3672 45.0521 43.5234 45.6406 43.8359C46.2292 44.1484 46.7005 44.6042 47.0547 45.2031C47.4141 45.7969 47.5938 46.4766 47.5938 47.2422C47.5938 48.0078 47.4141 48.6927 47.0547 49.2969C46.7005 49.901 46.2266 50.362 45.6328 50.6797C45.0443 50.9974 44.3958 51.1562 43.6875 51.1562C42.9792 51.1562 42.3281 50.9974 41.7344 50.6797C41.1458 50.362 40.6719 49.901 40.3125 49.2969ZM41.6641 45.2031C41.1172 45.7188 40.8438 46.3984 40.8438 47.2422C40.8438 48.0859 41.1172 48.7734 41.6641 49.3047C42.2161 49.8359 42.8906 50.1016 43.6875 50.1016C44.4844 50.1016 45.1589 49.8359 45.7109 49.3047C46.263 48.7734 46.5391 48.0859 46.5391 47.2422C46.5391 46.3984 46.263 45.7188 45.7109 45.2031C45.1641 44.6823 44.4896 44.4219 43.6875 44.4219C42.8854 44.4219 42.2109 44.6823 41.6641 45.2031ZM49.9919 51V43.5312H51.0622V44.7578C51.2757 44.3047 51.6195 43.9609 52.0934 43.7266C52.5726 43.487 53.057 43.3672 53.5466 43.3672C54.4528 43.3672 55.1611 43.6589 55.6716 44.2422C56.182 44.8255 56.432 45.6276 56.4216 46.6484V51H55.3512V46.6484C55.3512 45.9557 55.1924 45.4115 54.8747 45.0156C54.557 44.6198 54.1143 44.4219 53.5466 44.4219C53.2341 44.4219 52.9346 44.4688 52.6481 44.5625C52.3669 44.6562 52.1039 44.7969 51.8591 44.9844C51.6195 45.1719 51.4268 45.4323 51.2809 45.7656C51.1351 46.099 51.0622 46.4844 51.0622 46.9219V51H49.9919ZM63.8037 51V39.9766H70.7022V42.0391H66.1553V44.5547H69.7569V46.6016H66.1553V51H63.8037ZM71.9909 47.9922V43.5312H74.2175V47.5156C74.2175 47.7969 74.2592 48.0417 74.3425 48.25C74.431 48.4531 74.5456 48.6068 74.6862 48.7109C74.8269 48.8099 74.9675 48.8828 75.1081 48.9297C75.2487 48.9766 75.392 49 75.5378 49C75.9232 49 76.2435 48.8776 76.4987 48.6328C76.7592 48.388 76.8894 48.0026 76.8894 47.4766V43.5312H79.1081V51H76.8894V49.9766C76.6967 50.3411 76.418 50.6302 76.0534 50.8438C75.6941 51.0521 75.3269 51.1562 74.9519 51.1562C74.0717 51.1562 73.3581 50.8854 72.8112 50.3438C72.2644 49.8021 71.9909 49.0182 71.9909 47.9922ZM81.4828 51V43.5312H83.7094V45.3359C83.8865 44.6901 84.1755 44.2005 84.5766 43.8672C84.9776 43.5339 85.3917 43.3672 85.8187 43.3672C86.3187 43.3672 86.7458 43.4583 87.1 43.6406L86.7016 45.6406C86.3943 45.4896 86.0141 45.4141 85.5609 45.4141C84.9255 45.4141 84.4568 45.6615 84.1547 46.1562C83.8578 46.651 83.7094 47.3958 83.7094 48.3906V51H81.4828ZM88.5684 51V43.5312H90.795V44.6172C90.9929 44.2422 91.2898 43.9401 91.6856 43.7109C92.0867 43.4818 92.5085 43.3672 92.9512 43.3672C93.8106 43.3672 94.4799 43.6354 94.9591 44.1719C95.4434 44.7083 95.6856 45.4974 95.6856 46.5391V51H93.4669V47.0156C93.4669 46.5365 93.3471 46.1693 93.1075 45.9141C92.8731 45.6589 92.5606 45.5312 92.17 45.5312C91.2533 45.5312 90.795 46.0365 90.795 47.0469V51H88.5684ZM98.0994 41.6875C97.8285 41.4323 97.6931 41.1224 97.6931 40.7578C97.6931 40.3932 97.8285 40.0859 98.0994 39.8359C98.3754 39.5859 98.7035 39.4609 99.0838 39.4609C99.4588 39.4609 99.7791 39.5859 100.045 39.8359C100.31 40.0859 100.443 40.3932 100.443 40.7578C100.443 41.1224 100.31 41.4323 100.045 41.6875C99.7791 41.9427 99.4588 42.0703 99.0838 42.0703C98.7035 42.0703 98.3754 41.9427 98.0994 41.6875ZM97.9822 51V43.5312H100.193V51H97.9822ZM101.896 45.2891V43.5312H103.255V40.6641H105.466V43.5312H107.037V45.2891H105.466V51H103.255V45.2891H101.896ZM108.638 47.9922V43.5312H110.864V47.5156C110.864 47.7969 110.906 48.0417 110.989 48.25C111.078 48.4531 111.192 48.6068 111.333 48.7109C111.474 48.8099 111.614 48.8828 111.755 48.9297C111.896 48.9766 112.039 49 112.185 49C112.57 49 112.89 48.8776 113.146 48.6328C113.406 48.388 113.536 48.0026 113.536 47.4766V43.5312H115.755V51H113.536V49.9766C113.344 50.3411 113.065 50.6302 112.7 50.8438C112.341 51.0521 111.974 51.1562 111.599 51.1562C110.719 51.1562 110.005 50.8854 109.458 50.3438C108.911 49.8021 108.638 49.0182 108.638 47.9922ZM118.13 51V43.5312H120.356V45.3359C120.533 44.6901 120.822 44.2005 121.223 43.8672C121.624 43.5339 122.039 43.3672 122.466 43.3672C122.966 43.3672 123.393 43.4583 123.747 43.6406L123.348 45.6406C123.041 45.4896 122.661 45.4141 122.208 45.4141C121.572 45.4141 121.104 45.6615 120.802 46.1562C120.505 46.651 120.356 47.3958 120.356 48.3906V51H118.13ZM125.168 49.2969C124.819 48.6927 124.645 48.0078 124.645 47.2422C124.645 46.4766 124.819 45.7969 125.168 45.2031C125.523 44.6094 125.994 44.1562 126.582 43.8438C127.176 43.526 127.83 43.3672 128.543 43.3672C129.069 43.3672 129.567 43.4635 130.036 43.6562C130.504 43.849 130.911 44.1146 131.254 44.4531C131.598 44.7917 131.869 45.2083 132.067 45.7031C132.27 46.1927 132.372 46.7266 132.372 47.3047C132.372 47.5026 132.361 47.7318 132.34 47.9922H126.864C126.916 48.3932 127.124 48.7031 127.489 48.9219C127.859 49.1354 128.265 49.2422 128.707 49.2422C129.03 49.2422 129.338 49.1823 129.629 49.0625C129.926 48.9427 130.163 48.7682 130.34 48.5391L131.957 49.6406C131.609 50.1615 131.127 50.5443 130.512 50.7891C129.898 51.0339 129.241 51.1562 128.543 51.1562C127.83 51.1562 127.176 50.9974 126.582 50.6797C125.994 50.3568 125.523 49.8958 125.168 49.2969ZM126.895 46.6016H130.129C130.077 46.1797 129.892 45.862 129.575 45.6484C129.262 45.4297 128.924 45.3203 128.559 45.3203C128.194 45.3203 127.848 45.4271 127.52 45.6406C127.192 45.849 126.984 46.1693 126.895 46.6016Z" fill="#1D1F1F"/>
<path d="M0 23.2641H6.71792C6.76256 24.3145 7.19405 25.1973 8.0124 25.9122C8.84563 26.6271 9.98388 26.9846 11.4272 26.9846C12.796 26.9846 13.9045 26.6927 14.7526 26.1091C15.6007 25.5109 16.0322 24.7158 16.0471 23.7236C16.0769 22.9504 15.8239 22.2792 15.2883 21.7102C14.7526 21.1412 13.7409 20.6451 12.2529 20.222L8.45877 19.1934C3.0279 17.5447 0.312461 14.5829 0.312461 10.308C0.312461 7.59419 1.354 5.38378 3.43707 3.67673C5.52015 1.95509 8.09424 1.09426 11.1593 1.09426C14.2691 1.09426 16.8208 1.94779 18.8146 3.65484C20.8084 5.36189 21.8053 7.65985 21.8053 10.5487H15.1321C15.1321 9.49821 14.775 8.65198 14.0608 8.01001C13.3614 7.36804 12.3645 7.04706 11.0701 7.04706C9.89461 7.04706 8.92003 7.33886 8.14631 7.92247C7.3726 8.49149 6.98574 9.22829 6.98574 10.1329C6.98574 11.6065 8.11655 12.657 10.3782 13.2844L14.1277 14.4443C20.0198 16.1076 22.899 19.2153 22.765 23.7674C22.7502 25.2556 22.4079 26.5906 21.7384 27.7724C21.0837 28.9542 20.2133 29.9026 19.1271 30.6175C18.0558 31.3324 16.858 31.8796 15.5338 32.2589C14.2244 32.6383 12.8556 32.8279 11.4272 32.8279C8.01984 32.8279 5.25977 31.9379 3.14693 30.1579C1.04898 28.3633 0 26.0654 0 23.2641Z" fill="#DE5212"/>
<path d="M26.794 51V11.4022H33.1102V13.9847C33.631 13.0363 34.4642 12.2922 35.6099 11.7524C36.7556 11.2126 38.0054 10.9426 39.3594 10.9426C40.7283 10.9426 42.0377 11.2053 43.2875 11.7305C44.5373 12.2412 45.631 12.9634 46.5683 13.8972C47.5206 14.8163 48.2794 15.9617 48.8448 17.3331C49.4103 18.7046 49.693 20.1928 49.693 21.7977C49.693 23.4318 49.4103 24.9492 48.8448 26.3499C48.2794 27.7359 47.5206 28.8959 46.5683 29.8296C45.631 30.7488 44.5373 31.471 43.2875 31.9963C42.0377 32.5069 40.7283 32.7623 39.3594 32.7623C37.9905 32.7623 36.7332 32.4996 35.5876 31.9744C34.4419 31.4346 33.6161 30.6978 33.1102 29.764V51H26.794ZM33.2441 21.9291C33.2441 23.4318 33.7202 24.6355 34.6725 25.5401C35.6396 26.4447 36.8076 26.897 38.1765 26.897C39.5603 26.897 40.7283 26.4374 41.6806 25.5182C42.6328 24.5991 43.1089 23.4027 43.1089 21.9291C43.1089 20.4263 42.6328 19.208 41.6806 18.2742C40.7283 17.3258 39.5603 16.8517 38.1765 16.8517C36.8225 16.8517 35.662 17.3331 34.6948 18.2961C33.7277 19.2445 33.2441 20.4554 33.2441 21.9291Z" fill="#DE5212"/>
<path d="M54.0567 27.5536C53.0598 25.8611 52.5614 23.9425 52.5614 21.7977C52.5614 19.653 53.0598 17.749 54.0567 16.0857C55.0685 14.4224 56.415 13.1531 58.0964 12.2776C59.7926 11.3876 61.6599 10.9426 63.6984 10.9426C65.2012 10.9426 66.6221 11.2126 67.9612 11.7524C69.3003 12.2922 70.4609 13.0363 71.4429 13.9847C72.425 14.9331 73.1987 16.1003 73.7641 17.4863C74.3444 18.8578 74.6345 20.3533 74.6345 21.9728C74.6345 22.5273 74.6048 23.1692 74.5452 23.8987H58.8999C59.0486 25.0222 59.6438 25.8903 60.6853 26.5031C61.7418 27.1013 62.9023 27.4004 64.1671 27.4004C65.0896 27.4004 65.9674 27.2326 66.8007 26.897C67.6488 26.5614 68.3258 26.0727 68.8317 25.4307L73.4516 28.5165C72.4547 29.9755 71.0784 31.0479 69.3227 31.7337C67.5669 32.4194 65.6922 32.7623 63.6984 32.7623C61.6599 32.7623 59.7926 32.3173 58.0964 31.4273C56.415 30.5227 55.0685 29.2314 54.0567 27.5536ZM58.9891 20.0031H68.229C68.0803 18.8213 67.5521 17.9313 66.6444 17.3331C65.7517 16.7204 64.7845 16.414 63.743 16.414C62.7015 16.414 61.712 16.7131 60.7746 17.3113C59.8372 17.8949 59.2421 18.7922 58.9891 20.0031Z" fill="#DE5212"/>
<path d="M77.2351 21.7977C77.2351 20.1928 77.5475 18.7046 78.1725 17.3331C78.8123 15.9617 79.6678 14.8163 80.7391 13.8972C81.8104 12.9634 83.0454 12.2412 84.444 11.7305C85.8426 11.2053 87.3082 10.9426 88.8408 10.9426C90.7453 10.9426 92.5085 11.3366 94.1303 12.1244C95.767 12.8977 97.0987 13.9847 98.1253 15.3854L92.9474 19.0183C92.5159 18.3618 91.9282 17.8438 91.1842 17.4645C90.4552 17.0851 89.674 16.8954 88.8408 16.8954C87.4273 16.8954 86.1849 17.355 85.1136 18.2742C84.0571 19.1788 83.5289 20.3533 83.5289 21.7977C83.5289 23.2422 84.0571 24.4386 85.1136 25.3869C86.1849 26.3353 87.4273 26.8095 88.8408 26.8095C89.674 26.8095 90.4552 26.6271 91.1842 26.2623C91.9282 25.883 92.5159 25.365 92.9474 24.7085L98.1253 28.2977C97.1284 29.7129 95.8116 30.8145 94.1749 31.6023C92.5382 32.3756 90.7602 32.7623 88.8408 32.7623C86.7875 32.7623 84.8829 32.3173 83.1272 31.4273C81.3715 30.5227 79.9505 29.2241 78.8643 27.5317C77.7782 25.8392 77.2351 23.9279 77.2351 21.7977Z" fill="#DE5212"/>
<path d="M102.4 6.23731C101.626 5.52239 101.239 4.65427 101.239 3.63296C101.239 2.61164 101.626 1.75082 102.4 1.05049C103.188 0.350165 104.126 0 105.212 0C106.283 0 107.198 0.350165 107.957 1.05049C108.716 1.75082 109.095 2.61164 109.095 3.63296C109.095 4.65427 108.716 5.52239 107.957 6.23731C107.198 6.95222 106.283 7.30968 105.212 7.30968C104.126 7.30968 103.188 6.95222 102.4 6.23731ZM102.065 32.3246V11.4022H108.381V32.3246H102.065Z" fill="#DE5212"/>
<path d="M112.477 21.8415C112.477 20.222 112.782 18.7192 113.392 17.3331C114.017 15.9325 114.843 14.7799 115.87 13.8753C116.896 12.9561 118.057 12.2412 119.351 11.7305C120.646 11.2053 121.977 10.9426 123.346 10.9426C123.927 10.9426 124.544 11.0083 125.199 11.1396C125.868 11.2563 126.635 11.5408 127.498 11.9931C128.375 12.4308 129.067 13.0072 129.573 13.7221V11.4022H135.867V32.3246H129.573V29.9391C128.963 30.8437 128.026 31.5367 126.761 32.0182C125.511 32.4851 124.373 32.7185 123.346 32.7185C121.501 32.7185 119.76 32.2881 118.124 31.4273C116.487 30.5664 115.133 29.2971 114.062 27.6192C113.005 25.9268 112.477 24.0009 112.477 21.8415ZM120.668 18.2742C119.597 19.208 119.061 20.3971 119.061 21.8415C119.061 23.2859 119.597 24.475 120.668 25.4088C121.754 26.3426 122.997 26.8095 124.395 26.8095C125.779 26.8095 126.984 26.3572 128.011 25.4526C129.052 24.5334 129.573 23.3297 129.573 21.8415C129.573 20.3387 129.052 19.135 128.011 18.2304C126.984 17.3113 125.779 16.8517 124.395 16.8517C122.997 16.8517 121.754 17.3258 120.668 18.2742Z" fill="#DE5212"/>
<path d="M141.28 32.3246V0H147.641V32.3246H141.28Z" fill="#DE5212"/>
<path d="M162.662 16.9611C162.662 14.0722 163.369 11.4168 164.782 8.99485C166.196 6.55829 168.123 4.63238 170.563 3.21714C173.018 1.80189 175.704 1.09426 178.62 1.09426C181.551 1.09426 184.244 1.80189 186.699 3.21714C189.154 4.63238 191.089 6.55829 192.502 8.99485C193.916 11.4168 194.622 14.0722 194.622 16.9611C194.622 19.8208 193.916 22.4616 192.502 24.8836C191.089 27.3055 189.154 29.2241 186.699 30.6394C184.244 32.0546 181.551 32.7623 178.62 32.7623C176.433 32.7623 174.35 32.3464 172.371 31.5148C170.407 30.6686 168.71 29.5378 167.282 28.1226C165.868 26.7073 164.745 25.0295 163.912 23.089C163.079 21.1339 162.662 19.0913 162.662 16.9611ZM169.335 16.9611C169.335 19.5436 170.235 21.7467 172.036 23.5704C173.836 25.3796 176.031 26.2842 178.62 26.2842C181.224 26.2842 183.426 25.3796 185.226 23.5704C187.041 21.7467 187.949 19.5436 187.949 16.9611C187.949 14.3786 187.041 12.1755 185.226 10.3517C183.411 8.51337 181.209 7.59419 178.62 7.59419C176.031 7.59419 173.836 8.50608 172.036 10.3299C170.235 12.1536 169.335 14.364 169.335 16.9611Z" fill="#DE5212"/>
<path d="M197.089 16.3264V11.4022H201.106V9.9578C201.106 6.76255 201.947 4.30411 203.628 2.58246C205.31 0.860821 207.683 0 210.748 0H213.091V5.97468H210.748C209.677 5.97468 208.866 6.32485 208.315 7.02518C207.78 7.71091 207.512 8.68846 207.512 9.9578V11.4022H219.118V9.9578C219.118 6.76255 219.958 4.30411 221.64 2.58246C223.321 0.860821 225.694 0 228.759 0H231.103V5.97468H228.759C227.688 5.97468 226.877 6.32485 226.326 7.02518C225.791 7.71091 225.523 8.68846 225.523 9.9578V11.4022H229.808V16.3264H225.523V32.3246H219.118V16.3264H207.512V32.3246H201.106V16.3264H197.089Z" fill="#DE5212"/>
<path d="M233.502 27.5536C232.505 25.8611 232.007 23.9425 232.007 21.7977C232.007 19.653 232.505 17.749 233.502 16.0857C234.514 14.4224 235.861 13.1531 237.542 12.2776C239.238 11.3876 241.106 10.9426 243.144 10.9426C244.647 10.9426 246.068 11.2126 247.407 11.7524C248.746 12.2922 249.907 13.0363 250.889 13.9847C251.871 14.9331 252.644 16.1003 253.21 17.4863C253.79 18.8578 254.08 20.3533 254.08 21.9728C254.08 22.5273 254.05 23.1692 253.991 23.8987H238.345C238.494 25.0222 239.089 25.8903 240.131 26.5031C241.187 27.1013 242.348 27.4004 243.613 27.4004C244.535 27.4004 245.413 27.2326 246.246 26.897C247.094 26.5614 247.771 26.0727 248.277 25.4307L252.897 28.5165C251.9 29.9755 250.524 31.0479 248.768 31.7337C247.013 32.4194 245.138 32.7623 243.144 32.7623C241.106 32.7623 239.238 32.3173 237.542 31.4273C235.861 30.5227 234.514 29.2314 233.502 27.5536ZM238.435 20.0031H247.675C247.526 18.8213 246.998 17.9313 246.09 17.3331C245.197 16.7204 244.23 16.414 243.189 16.414C242.147 16.414 241.158 16.7131 240.22 17.3113C239.283 17.8949 238.688 18.7922 238.435 20.0031Z" fill="#DE5212"/>
<path d="M257.953 32.3246V11.4022H264.314V16.4577C264.82 14.6485 265.645 13.2771 266.791 12.3433C267.937 11.4095 269.12 10.9426 270.34 10.9426C271.768 10.9426 272.988 11.198 274 11.7086L272.862 17.3113C271.984 16.8881 270.898 16.6766 269.603 16.6766C267.788 16.6766 266.449 17.3696 265.586 18.7557C264.738 20.1418 264.314 22.2282 264.314 25.0149V32.3246H257.953Z" fill="#DE5212"/>
</svg>
